<svg width="20" height="20" viewBox="0 0 20 20" fill="none" xmlns="http://www.w3.org/2000/svg">
<mask id="mask0_15_2383" style="mask-type:alpha" maskUnits="userSpaceOnUse" x="0" y="0" width="20" height="20">
<rect width="20" height="20" fill="#D9D9D9"/>
</mask>
<g mask="url(#mask0_15_2383)">
<path d="M11.0417 6.74291V3.67396C11.0417 3.45646 11.1141 3.2759 11.259 3.13229C11.4038 2.98854 11.5833 2.91666 11.7973 2.91666H16.3311C16.5452 2.91666 16.7241 2.98854 16.8677 3.13229C17.0115 3.2759 17.0834 3.45646 17.0834 3.67396V6.74291C17.0834 6.96027 17.0109 7.14076 16.8661 7.28437C16.7212 7.42812 16.5418 7.5 16.3277 7.5H11.794C11.5798 7.5 11.4009 7.42812 11.2573 7.28437C11.1136 7.14076 11.0417 6.96027 11.0417 6.74291ZM2.91669 9.66666V3.66646C2.91669 3.45396 2.98912 3.2759 3.13398 3.13229C3.27884 2.98854 3.45828 2.91666 3.67231 2.91666H8.20606C8.42023 2.91666 8.59912 2.98854 8.74273 3.13229C8.88648 3.27604 8.95835 3.45416 8.95835 3.66666V9.66687C8.95835 9.87937 8.88592 10.0574 8.74106 10.201C8.5962 10.3448 8.41676 10.4167 8.20273 10.4167H3.66898C3.45481 10.4167 3.27592 10.3448 3.13231 10.201C2.98856 10.0573 2.91669 9.87916 2.91669 9.66666ZM11.0417 16.3333V10.3331C11.0417 10.1206 11.1141 9.94257 11.259 9.79896C11.4038 9.65521 11.5833 9.58333 11.7973 9.58333H16.3311C16.5452 9.58333 16.7241 9.65521 16.8677 9.79896C17.0115 9.94271 17.0834 10.1208 17.0834 10.3333V16.3335C17.0834 16.546 17.0109 16.7241 16.8661 16.8677C16.7212 17.0115 16.5418 17.0833 16.3277 17.0833H11.794C11.5798 17.0833 11.4009 17.0115 11.2573 16.8677C11.1136 16.724 11.0417 16.5458 11.0417 16.3333ZM2.91669 16.326V13.2571C2.91669 13.0397 2.98912 12.8592 3.13398 12.7156C3.27884 12.5719 3.45828 12.5 3.67231 12.5H8.20606C8.42023 12.5 8.59912 12.5719 8.74273 12.7156C8.88648 12.8592 8.95835 13.0397 8.95835 13.2571V16.326C8.95835 16.5435 8.88592 16.7241 8.74106 16.8677C8.5962 17.0115 8.41676 17.0833 8.20273 17.0833H3.66898C3.45481 17.0833 3.27592 17.0115 3.13231 16.8677C2.98856 16.7241 2.91669 16.5435 2.91669 16.326ZM4.16669 9.16666H7.70835V4.16666H4.16669V9.16666ZM12.2917 15.8333H15.8334V10.8333H12.2917V15.8333ZM12.2917 6.25H15.8334V4.16666H12.2917V6.25ZM4.16669 15.8333H7.70835V13.75H4.16669V15.8333Z" fill="#006BD6"/>
</g>
</svg>
