<svg width="20" height="20" viewBox="0 0 20 20" fill="none" xmlns="http://www.w3.org/2000/svg">
<mask id="mask0_17_358" style="mask-type:alpha" maskUnits="userSpaceOnUse" x="0" y="0" width="20" height="20">
<rect width="20" height="20" fill="#D9D9D9"/>
</mask>
<g mask="url(#mask0_17_358)">
<path d="M11.0417 6.74292V3.67396C11.0417 3.45646 11.1142 3.2759 11.259 3.13229C11.4039 2.98854 11.5833 2.91667 11.7974 2.91667H16.3311C16.5453 2.91667 16.7242 2.98854 16.8678 3.13229C17.0115 3.2759 17.0834 3.45646 17.0834 3.67396V6.74292C17.0834 6.96028 17.011 7.14076 16.8661 7.28438C16.7213 7.42813 16.5418 7.5 16.3278 7.5H11.794C11.5799 7.5 11.401 7.42813 11.2574 7.28438C11.1136 7.14076 11.0417 6.96028 11.0417 6.74292ZM2.91675 9.66667V3.66646C2.91675 3.45396 2.98918 3.2759 3.13404 3.13229C3.2789 2.98854 3.45835 2.91667 3.67237 2.91667H8.20612C8.42029 2.91667 8.59918 2.98854 8.74279 3.13229C8.88654 3.27604 8.95842 3.45417 8.95842 3.66667V9.66688C8.95842 9.87938 8.88598 10.0574 8.74112 10.201C8.59626 10.3448 8.41682 10.4167 8.20279 10.4167H3.66904C3.45487 10.4167 3.27598 10.3448 3.13237 10.201C2.98862 10.0573 2.91675 9.87917 2.91675 9.66667ZM11.0417 16.3333V10.3331C11.0417 10.1206 11.1142 9.94257 11.259 9.79896C11.4039 9.65521 11.5833 9.58333 11.7974 9.58333H16.3311C16.5453 9.58333 16.7242 9.65521 16.8678 9.79896C17.0115 9.94271 17.0834 10.1208 17.0834 10.3333V16.3335C17.0834 16.546 17.011 16.7241 16.8661 16.8677C16.7213 17.0115 16.5418 17.0833 16.3278 17.0833H11.794C11.5799 17.0833 11.401 17.0115 11.2574 16.8677C11.1136 16.724 11.0417 16.5458 11.0417 16.3333ZM2.91675 16.326V13.2571C2.91675 13.0397 2.98918 12.8592 3.13404 12.7156C3.2789 12.5719 3.45835 12.5 3.67237 12.5H8.20612C8.42029 12.5 8.59918 12.5719 8.74279 12.7156C8.88654 12.8592 8.95842 13.0397 8.95842 13.2571V16.326C8.95842 16.5435 8.88598 16.7241 8.74112 16.8677C8.59626 17.0115 8.41682 17.0833 8.20279 17.0833H3.66904C3.45487 17.0833 3.27598 17.0115 3.13237 16.8677C2.98862 16.7241 2.91675 16.5435 2.91675 16.326ZM4.16675 9.16667H7.70842V4.16667H4.16675V9.16667ZM12.2917 15.8333H15.8334V10.8333H12.2917V15.8333ZM12.2917 6.25H15.8334V4.16667H12.2917V6.25ZM4.16675 15.8333H7.70842V13.75H4.16675V15.8333Z" fill="#25262B"/>
</g>
</svg>
